{"accessors" : [{"bufferView" : 0, "byteOffset" : 0, "componentType" : 5123, "count" : 58416, "type" : "SCALAR", "max" : [49072], "min" : [0]}, {"bufferView" : 1, "byteOffset" : 0, "componentType" : 5126, "count" : 49073, "type" : "VEC3", "max" : [0.25908800959587097, 0.7324050068855286, 0.2577599883079529], "min" : [-0.2626059949398041, -3.9999998989515007E-05, -0.2639339864253998], "name" : "POSITION"}, {"bufferView" : 1, "byteOffset" : 12, "componentType" : 5126, "count" : 49073, "type" : "VEC2", "max" : [0.9889699816703796, -0.01863499917089939], "min" : [0.009871999733150005, -0.9887300133705139], "name" : "TEXCOORD_0"}, {"bufferView" : 1, "byteOffset" : 20, "componentType" : 5126, "count" : 49073, "type" : "VEC3", "max" : [0.9999305009841919, 1.0000044107437134, 0.9999305009841919], "min" : [-0.9999403953552246, -1.0000001192092896, -1], "name" : "NORMAL"}], "asset" : {"generator" : "Aspose.3D 23.7.0", "version" : "2.0"}, "buffers" : [{"uri" : "data:application/octet-stream;base64,", "byteLength" : 1986152}], "bufferViews" : [{"buffer" : 0, "byteOffset" : 0, "byteLength" : 116832, "target" : 34963}, {"buffer" : 0, "byteOffset" : 116836, "byteLength" : 1869312, "byteStride" : 32, "target" : 34962}], "meshes" : [{"primitives" : [{"attributes" : {"POSITION" : 1, "TEXCOORD_0" : 2, "NORMAL" : 3}, "indices" : 0, "mode" : 4}], "name" : ""}], "nodes" : [{"mesh" : 0, "name" : "coffee_cup_Cylinder.007"}], "scene" : 0, "scenes" : [{"nodes" : [0]}]}